<?xml version="1.0" encoding="utf-8"?><!-- Uploaded to: SVG Repo, www.svgrepo.com, Generator: SVG Repo Mixer Tools -->
<svg width="800px" height="800px" viewBox="0 0 24 24" fill="none" xmlns="http://www.w3.org/2000/svg"><path fill-rule="evenodd" clip-rule="evenodd" d="M12 2c-.55 0-1 .45-1 1v8.922a10 10 0 0 0 .254 2.24l-.206.206-.215-.344c-.4-.64-.873-1.234-1.407-1.768l-.966-.966a.996.996 0 0 0-1.41 0c-.39.39-.39 1.03 0 1.42l3.89 3.883a1.5 1.5 0 0 0 2.12 0l3.89-3.883c.39-.39.39-1.03 0-1.42a.996.996 0 0 0-1.41 0l-.966.966a10.004 10.004 0 0 0-1.407 1.768l-.215.344-.206-.207a10 10 0 0 0 .254-2.24V3c0-.55-.45-1-1-1zM6 20a1 1 0 1 0 0 2h12a1 1 0 1 0 0-2H6z" /></svg>